<svg width="1140" height="1140" viewBox="0 0 1140 1140" fill="none" xmlns="http://www.w3.org/2000/svg">
<rect width="1140" height="1140" rx="252" fill="#8BC34A"/>
<path d="M366.111 217.158C369.478 210.326 376.434 206 384.05 206H810C821.046 206 830 214.954 830 226V311C830 322.046 821.046 331 810 331H342.155C327.337 331 317.665 315.449 324.216 302.158L366.111 217.158Z" fill="white"/>
<path d="M732.6 530.645C729.201 523.9 722.293 519.646 714.74 519.646H460.711C449.665 519.646 440.711 528.6 440.711 539.646V624.245C440.711 635.29 449.665 644.245 460.711 644.245H757.376C772.272 644.245 781.94 628.545 775.236 615.244L732.6 530.645Z" fill="white"/>
<rect x="440.711" y="206" width="124.599" height="728.259" rx="20" fill="white"/>
</svg>
