<svg width="324" height="324" viewBox="0 0 324 324" fill="none" xmlns="http://www.w3.org/2000/svg">
<path fill-rule="evenodd" clip-rule="evenodd" d="M128.89 3.57208C109.407 8.9661 97.4344 16.3045 82.7725 31.8373C67.9977 47.4889 60.362 62.0401 57.4738 80.0442C56.0273 89.0618 55.0371 91.175 51.1362 93.5655C43.8955 98.0037 41.4282 106.577 42.0668 125.089C42.6941 143.324 45.4824 149.338 54.8613 152.693C65.303 156.427 65.9916 154.792 66.0481 126.126C66.0755 112.188 66.8028 94.9794 67.6655 87.8856C76.4511 15.5709 167.835 -14.0515 219.094 38.7986C241.182 61.5716 243.386 70.4256 243.386 136.387C243.386 194.571 242.573 198.875 229.035 212.399C214.912 226.508 188.884 236.943 178.156 232.799C175.324 231.706 167.911 230.812 161.681 230.812C152.755 230.812 149.788 231.48 147.685 233.962C144.065 238.233 144.323 245.571 148.242 249.756C152.852 254.68 171.804 254.716 177.64 249.813C179.859 247.951 184.854 245.935 188.742 245.335L195.814 244.243L178.996 261.207C169.746 270.538 161.662 278.173 161.033 278.173C160.404 278.173 149.287 267.445 136.326 254.332C114.751 232.499 112.764 229.983 112.764 224.479C112.764 221.174 113.309 218.768 113.973 219.133C127.54 226.592 134.212 227.202 135.031 221.055C135.441 217.995 133.486 216.181 124.107 210.916C110.056 203.032 98.2778 189.792 93.1562 176.126C89.7229 166.962 89.4084 163.23 88.9198 125.756L88.3909 85.2833L98.1972 82.2349C105.607 79.9323 109.923 77.1974 115.86 71.0404L123.717 62.8943L129.126 72.1409C143.855 97.3217 172.971 113.07 208.312 114.976L225.647 115.91V145.589C225.647 178.997 224.146 186.464 215.499 196.078C209.429 202.825 204.425 205.96 190.178 211.933C179.131 216.565 176.124 220.955 181.253 224.961C183.453 226.678 185.593 226.492 192.392 223.995C212.404 216.641 224.78 206.411 231.596 191.586C236.082 181.83 236.134 181.348 236.584 144.7C236.847 123.289 236.392 106.635 235.507 105.215C234.313 103.301 230.258 102.848 217.191 103.169C173.258 104.247 141.033 83.3251 130.49 46.881C126.354 32.5796 118.932 32.4366 117.15 46.6227C115.452 60.1473 104.643 69.7505 87.8974 72.6163C83.5321 73.3637 79.3409 74.9688 78.5829 76.1847C77.8234 77.4006 77.4251 98.5444 77.6976 123.172C78.2685 174.734 79.1119 178.771 93.5787 199.185C100.802 209.377 101.476 211.132 101.476 219.762C101.476 228.366 100.985 229.654 95.8928 234.428C92.8224 237.308 88.7731 242.321 86.8928 245.571C83.7933 250.926 82.7693 251.48 75.9447 251.504C55.8579 251.571 33.657 261.807 20.6658 276.988C8.2567 291.488 -2.40916 316.207 1.54498 321.296C5.62168 326.542 9.19201 324.194 12.7736 313.909C17.8437 299.348 22.8041 291.103 32.0493 281.869C43.6504 270.278 55.1371 265.058 71.3907 263.99L84.5432 263.126L112.204 291.748C127.418 307.489 140.944 320.368 142.262 320.368C143.581 320.368 148.187 315.366 152.497 309.252C156.809 303.138 160.699 298.135 161.143 298.135C161.586 298.135 165.476 303.138 169.788 309.252C174.098 315.366 178.704 320.368 180.023 320.368C181.341 320.368 194.867 307.489 210.081 291.748L237.742 263.126L250.894 263.99C267.148 265.058 278.635 270.278 290.236 281.869C299.481 291.103 304.441 299.348 309.511 313.909C313.228 324.582 316.463 326.426 321.348 320.662C324.246 317.242 325.02 312.614 322.404 314.34C321.517 314.925 320.792 314.367 320.792 313.102C320.792 307.64 309.345 286.006 301.779 277.169C288.601 261.777 266.525 251.571 246.265 251.504C240.219 251.484 238.292 250.741 236.86 247.882C235.868 245.904 232.623 241.409 229.65 237.893L224.243 231.502L231.799 225.54C247.674 213.016 254.674 195.594 254.674 168.615C254.674 153.148 254.937 151.732 258.011 150.69C264.948 148.339 267.562 140.15 267.569 120.753L267.575 102.833L261.367 96.526C256.179 91.2542 254.721 88.1542 252.505 77.6745C248.721 59.7805 241.351 45.9355 228.131 31.8838C202.43 4.56752 164.439 -6.27047 128.89 3.57208ZM54.1728 106.238C52.4473 108.079 52.9359 137.501 54.7098 138.672C55.7434 139.354 56.3224 133.523 56.3224 122.413C56.3224 105.098 56.1869 104.085 54.1728 106.238ZM255.255 122.311C255.255 131.31 255.527 134.99 255.86 130.492C256.192 125.993 256.192 118.629 255.86 114.131C255.527 109.632 255.255 113.313 255.255 122.311ZM115.989 126.164C113.367 127.645 111.958 129.915 111.958 132.655C111.958 136.757 112.298 136.874 124.57 136.998C134.763 137.103 137.458 136.578 138.617 134.263C139.546 132.409 139.317 130.323 137.968 128.351C135.258 124.393 121.541 123.029 115.989 126.164ZM176.024 125.73C171.562 127.759 169.844 131.901 172.207 134.94C175.003 138.538 196.612 137.732 198.847 133.948C200.189 131.677 199.973 130.321 197.923 128.131C194.783 124.777 181.357 123.305 176.024 125.73ZM120.701 142.74C118.182 144.919 117.5 146.813 118.286 149.455C120.698 157.574 132.756 155.316 131.809 146.924C131.127 140.87 125.371 138.702 120.701 142.74ZM180.376 143.104C177.365 146.319 177.265 147.049 179.363 150.423C180.646 152.485 183.331 154.172 185.332 154.172C187.333 154.172 190.018 152.485 191.3 150.423C193.398 147.049 193.298 146.319 190.287 143.104C188.449 141.14 186.219 139.534 185.332 139.534C184.445 139.534 182.215 141.14 180.376 143.104ZM129.509 179.906C127.521 185.441 129.793 188.648 137.766 191.555C153.533 197.306 182.063 193.393 183.485 185.286C184.498 179.519 179.599 177.305 172.086 180.135C163.62 183.326 148.83 183.266 140.178 180.006C131.691 176.808 130.625 176.797 129.509 179.906ZM99.0938 248.217L93.111 255.288L98.5036 261.288C101.469 264.588 112.333 275.743 122.649 286.078L141.402 304.868L147.588 296.806L153.774 288.744L130.545 264.945C117.768 251.854 106.812 241.145 106.196 241.145C105.58 241.145 102.384 244.328 99.0938 248.217ZM191.692 264.993L168.414 288.842L174.6 296.904L180.786 304.966L201.2 284.426C212.429 273.129 223.309 261.944 225.38 259.569L229.143 255.254L223.177 248.199C219.893 244.319 216.705 241.145 216.089 241.145C215.473 241.145 204.495 251.876 191.692 264.993ZM0.00815585 317.927C0.0855615 319.934 0.467752 320.342 0.982177 318.969C1.44822 317.726 1.39017 316.239 0.85478 315.668C0.319391 315.096 -0.0611867 316.112 0.00815585 317.927Z" fill="#E9EAEA"/>
</svg>
