<svg width="424" height="62" viewBox="0 0 424 62" fill="none" xmlns="http://www.w3.org/2000/svg">
<path d="M27.7504 0V6.47253H0V0H27.7504ZM6.1309 26.2308V47.6923H0V19.7582H21.9422V26.2308H6.1309ZM52.274 26.2308V35.7692C52.274 37.6315 51.9836 39.3348 51.4027 40.8791C50.8219 42.4234 50.0045 43.752 48.9504 44.8648C47.8963 45.9777 46.6379 46.8407 45.175 47.4538C43.7122 48.067 42.0988 48.3736 40.3349 48.3736C38.5709 48.3736 36.9575 48.067 35.4947 47.4538C34.0319 46.8407 32.7734 45.9777 31.7193 44.8648C30.6652 43.752 29.8478 42.4234 29.267 40.8791C28.6861 39.3348 28.3957 37.6315 28.3957 35.7692V26.2308C28.3957 24.3685 28.6861 22.6652 29.267 21.1209C29.8478 19.5766 30.6652 18.248 31.7193 17.1352C32.7734 16.0223 34.0319 15.1593 35.4947 14.5462C36.9575 13.933 38.5709 13.6264 40.3349 13.6264C42.0988 13.6264 43.7122 13.933 45.175 14.5462C46.6379 15.1593 47.8963 16.0223 48.9504 17.1352C50.0045 18.248 50.8219 19.5766 51.4027 21.1209C51.9836 22.6652 52.274 24.3685 52.274 26.2308ZM34.204 26.2308V35.7692C34.204 37.6769 34.774 39.2326 35.9142 40.4363C37.0543 41.6399 38.5279 42.2418 40.3349 42.2418C42.1419 42.2418 43.6154 41.6399 44.7556 40.4363C45.8957 39.2326 46.4658 37.6769 46.4658 35.7692V26.2308C46.4658 24.3231 45.8957 22.7674 44.7556 21.5637C43.6154 20.3601 42.1419 19.7582 40.3349 19.7582C38.5279 19.7582 37.0543 20.3601 35.9142 21.5637C34.774 22.7674 34.204 24.3231 34.204 26.2308ZM82.6058 26.2308V35.7692C82.6058 37.6315 82.3154 39.3348 81.7346 40.8791C81.1537 42.4234 80.3363 43.752 79.2822 44.8648C78.2281 45.9777 76.9697 46.8407 75.5069 47.4538C74.044 48.067 72.4306 48.3736 70.6667 48.3736C68.9027 48.3736 67.2893 48.067 65.8265 47.4538C64.3637 46.8407 63.1052 45.9777 62.0511 44.8648C60.9971 43.752 60.1796 42.4234 59.5988 40.8791C59.018 39.3348 58.7275 37.6315 58.7275 35.7692V26.2308C58.7275 24.3685 59.018 22.6652 59.5988 21.1209C60.1796 19.5766 60.9971 18.248 62.0511 17.1352C63.1052 16.0223 64.3637 15.1593 65.8265 14.5462C67.2893 13.933 68.9027 13.6264 70.6667 13.6264C72.4306 13.6264 74.044 13.933 75.5069 14.5462C76.9697 15.1593 78.2281 16.0223 79.2822 17.1352C80.3363 18.248 81.1537 19.5766 81.7346 21.1209C82.3154 22.6652 82.6058 24.3685 82.6058 26.2308ZM64.5358 26.2308V35.7692C64.5358 37.6769 65.1058 39.2326 66.246 40.4363C67.3861 41.6399 68.8597 42.2418 70.6667 42.2418C72.4737 42.2418 73.9472 41.6399 75.0874 40.4363C76.2275 39.2326 76.7976 37.6769 76.7976 35.7692V26.2308C76.7976 24.3231 76.2275 22.7674 75.0874 21.5637C73.9472 20.3601 72.4737 19.7582 70.6667 19.7582C68.8597 19.7582 67.3861 20.3601 66.246 21.5637C65.1058 22.7674 64.5358 24.3231 64.5358 26.2308ZM91.6408 36.1099V20.4396H85.8326V14.3077H91.6408V3.40659H97.449V14.3077H103.903V20.4396H97.449V36.1099C97.449 37.6542 97.9438 38.9487 98.9333 39.9934C99.9229 41.0381 101.149 41.5604 102.612 41.5604H105.839V47.6923H102.612C100.977 47.6923 99.4926 47.4084 98.1589 46.8407C96.8252 46.2729 95.6743 45.478 94.7062 44.456C93.7382 43.4341 92.9853 42.219 92.4475 40.811C91.9097 39.4029 91.6408 37.8359 91.6408 36.1099ZM107.775 14.3077H123.909C125.501 14.3077 126.974 14.5916 128.329 15.1593C129.685 15.7271 130.846 16.522 131.814 17.544C132.782 18.5659 133.535 19.7923 134.073 21.2231C134.611 22.6538 134.88 24.2095 134.88 25.8901V36.1099C134.88 37.8359 134.611 39.4029 134.073 40.811C133.535 42.219 132.782 43.4341 131.814 44.456C130.846 45.478 129.685 46.2729 128.329 46.8407C126.974 47.4084 125.501 47.6923 123.909 47.6923H118.1V62H112.292V20.4396H107.775V14.3077ZM129.072 36.1099V25.8901C129.072 24.3458 128.577 23.0513 127.587 22.0066C126.598 20.9619 125.371 20.4396 123.909 20.4396H118.1V41.5604H123.909C125.371 41.5604 126.598 41.0381 127.587 39.9934C128.577 38.9487 129.072 37.6542 129.072 36.1099ZM155.531 47.6923H138.107V41.5604H143.915V20.4396H139.397V14.3077H149.723V17.7143C150.239 16.9421 150.885 16.2608 151.659 15.6703C152.304 15.1707 153.111 14.7051 154.079 14.2736C155.047 13.8421 156.177 13.6264 157.467 13.6264H160.049V20.4396H156.177C155.187 20.4396 154.294 20.6212 153.498 20.9846C152.702 21.348 152.025 21.7341 151.465 22.1429C150.777 22.6425 150.196 23.2103 149.723 23.8462V41.5604H155.531V47.6923ZM172.956 0V6.81319H167.148V0H172.956ZM161.339 41.5604H167.148V20.4396H162.63V14.3077H172.956V41.5604H178.764V47.6923H161.339V41.5604ZM189.735 14.3077V17.7143C190.251 16.9421 190.897 16.2608 191.671 15.6703C192.317 15.1707 193.123 14.7051 194.091 14.2736C195.059 13.8421 196.189 13.6264 197.479 13.6264C198.77 13.6264 199.996 13.9103 201.158 14.478C202.32 15.0458 203.352 15.8407 204.256 16.8626C205.159 17.8846 205.869 19.111 206.385 20.5418C206.902 21.9725 207.16 23.5282 207.16 25.2088V47.6923H201.352V25.2088C201.352 23.6645 200.857 22.37 199.867 21.3253C198.878 20.2806 197.652 19.7582 196.189 19.7582C195.199 19.7582 194.306 19.9399 193.511 20.3033C192.715 20.6667 192.037 21.0527 191.478 21.4615C190.789 21.9612 190.208 22.5289 189.735 23.1648V47.6923H183.927V20.4396H179.409V14.3077H189.735ZM217.486 36.1099V20.4396H211.677V14.3077H217.486V3.40659H223.294V14.3077H229.747V20.4396H223.294V36.1099C223.294 37.6542 223.789 38.9487 224.778 39.9934C225.768 41.0381 226.994 41.5604 228.457 41.5604H231.683V47.6923H228.457C226.822 47.6923 225.337 47.4084 224.004 46.8407C222.67 46.2729 221.519 45.478 220.551 44.456C219.583 43.4341 218.83 42.219 218.292 40.811C217.754 39.4029 217.486 37.8359 217.486 36.1099ZM247.172 41.5604C248.291 41.5604 249.216 41.1744 249.947 40.4022C250.678 39.63 251.044 38.6535 251.044 37.4725C251.044 36.6095 250.646 35.9282 249.85 35.4286C249.054 34.9289 248.054 34.4861 246.849 34.1C245.645 33.7139 244.354 33.3051 242.977 32.8736C241.6 32.4421 240.31 31.8744 239.105 31.1703C237.9 30.4663 236.9 29.5692 236.104 28.4791C235.308 27.389 234.91 25.9582 234.91 24.1868C234.91 22.7333 235.136 21.4048 235.588 20.2011C236.04 18.9974 236.685 17.9527 237.524 17.067C238.363 16.1813 239.352 15.5 240.493 15.0231C241.633 14.5462 242.891 14.3077 244.268 14.3077H254.916V20.4396H244.268C243.278 20.4396 242.439 20.8029 241.751 21.5297C241.063 22.2564 240.718 23.1421 240.718 24.1868C240.718 25.0498 241.116 25.7311 241.912 26.2308C242.708 26.7304 243.709 27.1733 244.913 27.5593C246.118 27.9454 247.409 28.3542 248.785 28.7857C250.162 29.2172 251.453 29.785 252.658 30.489C253.862 31.193 254.863 32.0901 255.658 33.1802C256.454 34.2703 256.852 35.7011 256.852 37.4725C256.852 40.5612 255.97 43.0366 254.206 44.8989C252.442 46.7612 250.098 47.6923 247.172 47.6923H235.556V41.5604H247.172ZM291.702 0V6.47253H263.951V0H291.702ZM270.082 26.2308V47.6923H263.951V19.7582H285.893V26.2308H270.082ZM303.963 0V6.81319H298.155V0H303.963ZM292.347 41.5604H298.155V20.4396H293.638V14.3077H303.963V41.5604H309.772V47.6923H292.347V41.5604ZM320.743 14.3077V17.7143C321.259 16.9421 321.904 16.2608 322.679 15.6703C323.324 15.1707 324.131 14.7051 325.099 14.2736C326.067 13.8421 327.196 13.6264 328.487 13.6264C329.778 13.6264 331.004 13.9103 332.166 14.478C333.327 15.0458 334.36 15.8407 335.263 16.8626C336.167 17.8846 336.877 19.111 337.393 20.5418C337.909 21.9725 338.167 23.5282 338.167 25.2088V47.6923H332.359V25.2088C332.359 23.6645 331.864 22.37 330.875 21.3253C329.885 20.2806 328.659 19.7582 327.196 19.7582C326.207 19.7582 325.314 19.9399 324.518 20.3033C323.722 20.6667 323.045 21.0527 322.485 21.4615C321.797 21.9612 321.216 22.5289 320.743 23.1648V47.6923H314.935V20.4396H310.417V14.3077H320.743ZM356.883 14.3077H362.691V6.13187H358.174V0H368.499V47.6923H356.883C355.248 47.6923 353.764 47.4084 352.43 46.8407C351.096 46.2729 349.945 45.478 348.977 44.456C348.009 43.4341 347.256 42.219 346.718 40.811C346.181 39.4029 345.912 37.8359 345.912 36.1099V25.8901C345.912 24.2095 346.181 22.6538 346.718 21.2231C347.256 19.7923 348.009 18.5659 348.977 17.544C349.945 16.522 351.096 15.7271 352.43 15.1593C353.764 14.5916 355.248 14.3077 356.883 14.3077ZM351.72 25.8901V36.1099C351.72 37.6542 352.215 38.9487 353.204 39.9934C354.194 41.0381 355.42 41.5604 356.883 41.5604H362.691V20.4396H356.883C355.42 20.4396 354.194 20.9619 353.204 22.0066C352.215 23.0513 351.72 24.3458 351.72 25.8901ZM376.244 36.1099V25.8901C376.244 24.1187 376.534 22.4835 377.115 20.9846C377.696 19.4857 378.502 18.1912 379.535 17.1011C380.567 16.011 381.794 15.1593 383.213 14.5462C384.633 13.933 386.182 13.6264 387.86 13.6264C389.538 13.6264 391.087 13.933 392.507 14.5462C393.926 15.1593 395.153 16.011 396.185 17.1011C397.218 18.1912 398.024 19.4857 398.605 20.9846C399.186 22.4835 399.476 24.1187 399.476 25.8901V34.4066H382.052V36.1099C382.052 37.6542 382.547 38.9487 383.536 39.9934C384.526 41.0381 385.752 41.5604 387.215 41.5604H397.54V47.6923H387.215C385.58 47.6923 384.095 47.4084 382.762 46.8407C381.428 46.2729 380.277 45.478 379.309 44.456C378.341 43.4341 377.588 42.219 377.05 40.811C376.512 39.4029 376.244 37.8359 376.244 36.1099ZM387.86 19.7582C386.225 19.7582 384.848 20.3487 383.73 21.5297C382.611 22.7106 382.052 24.1641 382.052 25.8901V28.6154H393.668V25.8901C393.668 24.1641 393.109 22.7106 391.99 21.5297C390.872 20.3487 389.495 19.7582 387.86 19.7582ZM419.483 47.6923H402.058V41.5604H407.866V20.4396H403.349V14.3077H413.674V17.7143C414.191 16.9421 414.836 16.2608 415.61 15.6703C416.256 15.1707 417.062 14.7051 418.03 14.2736C418.998 13.8421 420.128 13.6264 421.419 13.6264H424V20.4396H420.128C419.138 20.4396 418.246 20.6212 417.45 20.9846C416.654 21.348 415.976 21.7341 415.417 22.1429C414.728 22.6425 414.148 23.2103 413.674 23.8462V41.5604H419.483V47.6923Z" fill="#E9EAEA"/>
</svg>
