<svg width="210" height="34" viewBox="0 0 210 34" fill="none" xmlns="http://www.w3.org/2000/svg">
<path d="M9.36525 0.288353C9.41185 0.193451 9.47271 0.106669 9.54559 0.0311895C9.65035 0.00719499 9.7577 -0.00274589 9.86495 0.00161573C10.2407 0.00933063 10.6164 0.00161573 10.9921 0.00161573H27.5522C27.8027 0.00161573 28.0532 0.00161573 28.3036 0.00161573C28.4107 -0.00379864 28.5179 0.00440724 28.623 0.0260463C28.7397 0.160411 28.836 0.312141 28.9085 0.476082C29.5072 1.54074 30.1066 2.6054 30.7069 3.67005C30.8234 3.84728 30.9216 4.03645 31 4.23453C30.8669 4.33858 30.7252 4.43064 30.5767 4.50969C30.4428 4.59804 30.3025 4.67584 30.1572 4.74243C30.0674 4.61685 29.9879 4.48397 29.9192 4.34511C29.3343 3.29588 28.7382 2.25437 28.1584 1.20257C28.1183 1.14342 28.0832 1.06242 28.0043 1.05341C27.7962 1.03345 27.5869 1.02915 27.3781 1.04056H11.2488C10.9825 1.04056 10.7166 1.04056 10.4511 1.04056C10.3444 1.03494 10.2375 1.04358 10.133 1.06627C10.0595 1.14129 9.99862 1.22816 9.95261 1.32344C9.79106 1.62689 9.61823 1.9252 9.45166 2.22351C7.03041 6.52328 4.61166 10.8243 2.19541 15.1267C1.88357 15.6693 1.59051 16.2222 1.27116 16.761C1.22777 16.8299 1.19404 16.9048 1.17097 16.9834C1.19035 17.0852 1.23047 17.1816 1.28869 17.2663C1.4753 17.58 1.64938 17.9002 1.82847 18.2178C4.48183 22.9325 7.13561 27.6518 9.7898 32.3759C9.90377 32.5624 9.97891 32.7784 10.1342 32.9353C10.351 32.9627 10.5699 32.9696 10.7879 32.9558H27.3831C27.602 32.9696 27.8217 32.9627 28.0394 32.9353C28.1502 32.8106 28.2411 32.6687 28.3086 32.5148C28.8196 31.6062 29.3306 30.6971 29.8416 29.7876C29.9185 29.6289 30.0095 29.4779 30.1133 29.3363C30.2538 29.3947 30.3887 29.4662 30.5166 29.5497C30.6743 29.6305 30.8225 29.7293 30.9587 29.8442C30.8832 30.0229 30.7936 30.1949 30.6907 30.3585C30.1062 31.3966 29.5218 32.4329 28.9373 33.4676C28.8359 33.6373 28.7695 33.8392 28.6217 33.9742C28.5166 33.9952 28.4094 34.0034 28.3024 33.9986C27.9104 33.9909 27.5184 33.9986 27.1277 33.9986H11.0384C10.6477 33.9986 10.2557 33.9986 9.86495 33.9986C9.75787 34.0036 9.6506 33.995 9.54559 33.9729C9.42671 33.8254 9.32656 33.6629 9.24753 33.4895C6.32532 28.299 3.40604 23.1073 0.489678 17.9143C0.364441 17.688 0.239203 17.4604 0.101442 17.2367C0.0508344 17.1609 0.0162761 17.0751 0 16.9847C0.0237747 16.907 0.0579125 16.833 0.101442 16.7648C0.351917 16.3444 0.579849 15.9072 0.826566 15.479C3.48911 10.7446 6.15291 6.00938 8.81796 1.27329C8.9983 0.942834 9.19117 0.62138 9.36525 0.288353Z" fill="#E9EAEA"/>
<path fill-rule="evenodd" clip-rule="evenodd" d="M16.7518 6.24255C15.4288 6.60881 14.6159 7.1071 13.6204 8.16179C12.6171 9.22456 12.0987 10.2126 11.9025 11.4351C11.8043 12.0474 11.7371 12.1909 11.4722 12.3532C10.9806 12.6546 10.813 13.2367 10.8564 14.4937C10.899 15.7319 11.0883 16.1402 11.7252 16.368C12.4342 16.6216 12.4809 16.5106 12.4847 14.5641C12.4866 13.6177 12.536 12.4492 12.5946 11.9675C13.1911 7.05728 19.3962 5.04589 22.8767 8.63447C24.3765 10.1808 24.5262 10.782 24.5262 15.2608C24.5262 19.2116 24.471 19.5038 23.5518 20.4222C22.5928 21.3802 20.8255 22.0887 20.097 21.8073C19.9047 21.7331 19.4013 21.6724 18.9783 21.6724C18.3723 21.6724 18.1708 21.7178 18.028 21.8863C17.7822 22.1763 17.7997 22.6746 18.0658 22.9588C18.3788 23.2931 19.6657 23.2955 20.0619 22.9626C20.2126 22.8362 20.5518 22.6993 20.8158 22.6586L21.296 22.5844L20.154 23.7363C19.526 24.3699 18.977 24.8883 18.9343 24.8883C18.8916 24.8883 18.1367 24.1599 17.2567 23.2695C15.7917 21.787 15.6568 21.6161 15.6568 21.2424C15.6568 21.018 15.6938 20.8546 15.7389 20.8794C16.6602 21.3859 17.1131 21.4273 17.1688 21.0099C17.1966 20.8021 17.0639 20.679 16.427 20.3215C15.473 19.7861 14.6732 18.8871 14.3254 17.9592C14.0923 17.3369 14.0709 17.0835 14.0378 14.539L14.0019 11.7908L14.6677 11.5839C15.1709 11.4275 15.4639 11.2418 15.8671 10.8237L16.4005 10.2706L16.7678 10.8985C17.768 12.6083 19.7449 13.6776 22.1446 13.807L23.3217 13.8704V15.8857C23.3217 18.1541 23.2198 18.6612 22.6327 19.3139C22.2205 19.7721 21.8807 19.9849 20.9133 20.3905C20.1632 20.7051 19.959 21.0031 20.3073 21.2751C20.4567 21.3917 20.602 21.3791 21.0636 21.2095C22.4225 20.7102 23.2628 20.0156 23.7257 19.0089C24.0303 18.3465 24.0338 18.3137 24.0643 15.8253C24.0822 14.3715 24.0513 13.2407 23.9912 13.1442C23.9102 13.0143 23.6348 12.9835 22.7475 13.0053C19.7644 13.0785 17.5763 11.6579 16.8604 9.18328C16.5796 8.21219 16.0756 8.20249 15.9547 9.16574C15.8393 10.0841 15.1054 10.7361 13.9683 10.9307C13.6719 10.9815 13.3873 11.0905 13.3359 11.173C13.2843 11.2556 13.2573 12.6913 13.2758 14.3636C13.3145 17.8647 13.3718 18.1388 14.3541 19.5249C14.8446 20.2169 14.8903 20.3361 14.8903 20.9221C14.8903 21.5063 14.857 21.5938 14.5112 21.918C14.3028 22.1135 14.0278 22.4539 13.9001 22.6746C13.6897 23.0382 13.6201 23.0758 13.1567 23.0774C11.7928 23.082 10.2854 23.777 9.40323 24.8078C8.56064 25.7924 7.83642 27.4708 8.10491 27.8164C8.38172 28.1726 8.62415 28.0132 8.86735 27.3148C9.21161 26.3261 9.54843 25.7663 10.1762 25.1392C10.9639 24.3522 11.7439 23.9978 12.8475 23.9253L13.7406 23.8666L15.6188 25.81C16.6518 26.8789 17.5703 27.7534 17.6598 27.7534C17.7493 27.7534 18.0621 27.4138 18.3548 26.9986C18.6476 26.5835 18.9117 26.2438 18.9418 26.2438C18.9719 26.2438 19.236 26.5835 19.5288 26.9986C19.8215 27.4138 20.1342 27.7534 20.2238 27.7534C20.3132 27.7534 21.2317 26.8789 22.2647 25.81L24.143 23.8666L25.036 23.9253C26.1397 23.9978 26.9196 24.3522 27.7074 25.1392C28.3351 25.7663 28.6719 26.3261 29.0162 27.3148C29.2686 28.0395 29.4883 28.1648 29.8199 27.7734C30.0167 27.5411 30.0693 27.2269 29.8916 27.3441C29.8314 27.3838 29.7822 27.3459 29.7822 27.26C29.7822 26.8892 29.0049 25.4201 28.4912 24.8201C27.5963 23.775 26.0974 23.082 24.7217 23.0774C24.3112 23.076 24.1803 23.0256 24.0831 22.8315C24.0157 22.6972 23.7954 22.3919 23.5935 22.1533L23.2264 21.7193L23.7395 21.3144C24.8174 20.464 25.2927 19.2811 25.2927 17.4492C25.2927 16.3989 25.3106 16.3028 25.5193 16.232C25.9903 16.0724 26.1678 15.5164 26.1683 14.1992L26.1687 12.9825L25.7471 12.5542C25.3949 12.1963 25.2959 11.9858 25.1454 11.2742C24.8884 10.0592 24.388 9.11908 23.4904 8.16495C21.7453 6.31014 19.1656 5.57423 16.7518 6.24255ZM11.6784 13.2137C11.5612 13.3387 11.5944 15.3365 11.7149 15.416C11.785 15.4623 11.8244 15.0664 11.8244 14.312C11.8244 13.1363 11.8152 13.0675 11.6784 13.2137ZM25.3321 14.3051C25.3321 14.9161 25.3506 15.166 25.3732 14.8606C25.3957 14.5551 25.3957 14.0551 25.3732 13.7496C25.3506 13.4442 25.3321 13.6941 25.3321 14.3051ZM15.8758 14.5667C15.6978 14.6672 15.6021 14.8214 15.6021 15.0074C15.6021 15.286 15.6252 15.2939 16.4585 15.3024C17.1506 15.3095 17.3336 15.2738 17.4123 15.1167C17.4754 14.9907 17.4598 14.8491 17.3682 14.7152C17.1842 14.4465 16.2528 14.3538 15.8758 14.5667ZM19.9522 14.5372C19.6492 14.675 19.5326 14.9562 19.693 15.1626C19.8829 15.4069 21.3502 15.3522 21.502 15.0953C21.5931 14.941 21.5784 14.849 21.4392 14.7002C21.226 14.4725 20.3143 14.3726 19.9522 14.5372ZM16.1958 15.6922C16.0247 15.8402 15.9784 15.9688 16.0317 16.1482C16.1955 16.6995 17.0143 16.5461 16.95 15.9763C16.9037 15.5652 16.5129 15.418 16.1958 15.6922ZM20.2478 15.7169C20.0433 15.9352 20.0365 15.9848 20.179 16.2139C20.2661 16.3539 20.4484 16.4685 20.5843 16.4685C20.7201 16.4685 20.9025 16.3539 20.9895 16.2139C21.132 15.9848 21.1252 15.9352 20.9207 15.7169C20.7959 15.5836 20.6445 15.4745 20.5843 15.4745C20.524 15.4745 20.3726 15.5836 20.2478 15.7169ZM16.7938 18.2158C16.6588 18.5917 16.8131 18.8094 17.3545 19.0068C18.4251 19.3973 20.3623 19.1316 20.4589 18.5812C20.5276 18.1895 20.195 18.0393 19.6848 18.2314C19.11 18.4481 18.1058 18.444 17.5183 18.2226C16.942 18.0055 16.8696 18.0048 16.7938 18.2158ZM14.7286 22.8542L14.3224 23.3344L14.6885 23.7418C14.8899 23.9659 15.6276 24.7233 16.328 25.4251L17.6014 26.7009L18.0214 26.1535L18.4415 25.6061L16.8641 23.9901C15.9966 23.1012 15.2527 22.374 15.2108 22.374C15.169 22.374 14.952 22.5902 14.7286 22.8542ZM21.0161 23.9933L19.4355 25.6127L19.8555 26.1601L20.2756 26.7075L21.6617 25.3129C22.4242 24.5458 23.163 23.7863 23.3035 23.6251L23.5591 23.332L23.154 22.853C22.931 22.5896 22.7146 22.374 22.6727 22.374C22.6309 22.374 21.8854 23.1027 21.0161 23.9933ZM8.00055 27.5876C8.00581 27.7239 8.03176 27.7516 8.06669 27.6584C8.09834 27.574 8.09439 27.473 8.05804 27.4342C8.02169 27.3954 7.99585 27.4644 8.00055 27.5876Z" fill="#E9EAEA"/>
<path d="M56.7336 8V10.5055H46V8H56.7336ZM48.3714 18.1538V26.4615H46V15.6484H54.4871V18.1538H48.3714ZM66.2192 18.1538V21.8462C66.2192 22.567 66.1068 23.2264 65.8822 23.8242C65.6575 24.422 65.3413 24.9363 64.9336 25.367C64.5259 25.7978 64.0392 26.1319 63.4734 26.3692C62.9076 26.6066 62.2835 26.7253 61.6012 26.7253C60.9189 26.7253 60.2949 26.6066 59.7291 26.3692C59.1633 26.1319 58.6765 25.7978 58.2688 25.367C57.8611 24.9363 57.5449 24.422 57.3202 23.8242C57.0956 23.2264 56.9833 22.567 56.9833 21.8462V18.1538C56.9833 17.433 57.0956 16.7736 57.3202 16.1758C57.5449 15.578 57.8611 15.0637 58.2688 14.633C58.6765 14.2022 59.1633 13.8681 59.7291 13.6308C60.2949 13.3934 60.9189 13.2747 61.6012 13.2747C62.2835 13.2747 62.9076 13.3934 63.4734 13.6308C64.0392 13.8681 64.5259 14.2022 64.9336 14.633C65.3413 15.0637 65.6575 15.578 65.8822 16.1758C66.1068 16.7736 66.2192 17.433 66.2192 18.1538ZM59.2298 18.1538V21.8462C59.2298 22.5846 59.4503 23.1868 59.8913 23.6527C60.3323 24.1187 60.9023 24.3516 61.6012 24.3516C62.3002 24.3516 62.8701 24.1187 63.3111 23.6527C63.7521 23.1868 63.9726 22.5846 63.9726 21.8462V18.1538C63.9726 17.4154 63.7521 16.8132 63.3111 16.3473C62.8701 15.8813 62.3002 15.6484 61.6012 15.6484C60.9023 15.6484 60.3323 15.8813 59.8913 16.3473C59.4503 16.8132 59.2298 17.4154 59.2298 18.1538ZM77.9513 18.1538V21.8462C77.9513 22.567 77.839 23.2264 77.6143 23.8242C77.3897 24.422 77.0735 24.9363 76.6658 25.367C76.258 25.7978 75.7713 26.1319 75.2055 26.3692C74.6397 26.6066 74.0156 26.7253 73.3333 26.7253C72.651 26.7253 72.027 26.6066 71.4612 26.3692C70.8954 26.1319 70.4086 25.7978 70.0009 25.367C69.5932 24.9363 69.277 24.422 69.0524 23.8242C68.8277 23.2264 68.7154 22.567 68.7154 21.8462V18.1538C68.7154 17.433 68.8277 16.7736 69.0524 16.1758C69.277 15.578 69.5932 15.0637 70.0009 14.633C70.4086 14.2022 70.8954 13.8681 71.4612 13.6308C72.027 13.3934 72.651 13.2747 73.3333 13.2747C74.0156 13.2747 74.6397 13.3934 75.2055 13.6308C75.7713 13.8681 76.258 14.2022 76.6658 14.633C77.0735 15.0637 77.3897 15.578 77.6143 16.1758C77.839 16.7736 77.9513 17.433 77.9513 18.1538ZM70.9619 18.1538V21.8462C70.9619 22.5846 71.1824 23.1868 71.6234 23.6527C72.0644 24.1187 72.6344 24.3516 73.3333 24.3516C74.0323 24.3516 74.6022 24.1187 75.0432 23.6527C75.4842 23.1868 75.7047 22.5846 75.7047 21.8462V18.1538C75.7047 17.4154 75.4842 16.8132 75.0432 16.3473C74.6022 15.8813 74.0323 15.6484 73.3333 15.6484C72.6344 15.6484 72.0644 15.8813 71.6234 16.3473C71.1824 16.8132 70.9619 17.4154 70.9619 18.1538ZM81.446 21.978V15.9121H79.1994V13.5385H81.446V9.31868H83.6925V13.5385H86.1887V15.9121H83.6925V21.978C83.6925 22.5758 83.8839 23.0769 84.2667 23.4813C84.6494 23.8857 85.1237 24.0879 85.6895 24.0879H86.9376V26.4615H85.6895C85.0571 26.4615 84.483 26.3516 83.9671 26.1319C83.4512 25.9121 83.0061 25.6044 82.6317 25.2088C82.2572 24.8132 81.966 24.3429 81.758 23.7978C81.55 23.2527 81.446 22.6462 81.446 21.978ZM87.6865 13.5385H93.9269C94.5427 13.5385 95.1126 13.6484 95.6368 13.8681C96.161 14.0879 96.6104 14.3956 96.9848 14.7912C97.3592 15.1868 97.6504 15.6615 97.8585 16.2154C98.0665 16.7692 98.1705 17.3714 98.1705 18.022V21.978C98.1705 22.6462 98.0665 23.2527 97.8585 23.7978C97.6504 24.3429 97.3592 24.8132 96.9848 25.2088C96.6104 25.6044 96.161 25.9121 95.6368 26.1319C95.1126 26.3516 94.5427 26.4615 93.9269 26.4615H91.6804V32H89.4338V15.9121H87.6865V13.5385ZM95.9239 21.978V18.022C95.9239 17.4242 95.7325 16.9231 95.3498 16.5187C94.967 16.1143 94.4927 15.9121 93.9269 15.9121H91.6804V24.0879H93.9269C94.4927 24.0879 94.967 23.8857 95.3498 23.4813C95.7325 23.0769 95.9239 22.5758 95.9239 21.978ZM106.158 26.4615H99.4186V24.0879H101.665V15.9121H99.9178V13.5385H103.912V14.8571C104.111 14.5582 104.361 14.2945 104.661 14.0659C104.91 13.8725 105.222 13.6923 105.597 13.5253C105.971 13.3582 106.408 13.2747 106.907 13.2747H107.906V15.9121H106.408C106.025 15.9121 105.68 15.9824 105.372 16.1231C105.064 16.2637 104.802 16.4132 104.586 16.5714C104.319 16.7648 104.095 16.9846 103.912 17.2308V24.0879H106.158V26.4615ZM112.898 8V10.6374H110.651V8H112.898ZM108.405 24.0879H110.651V15.9121H108.904V13.5385H112.898V24.0879H115.145V26.4615H108.405V24.0879ZM119.388 13.5385V14.8571C119.588 14.5582 119.837 14.2945 120.137 14.0659C120.387 13.8725 120.699 13.6923 121.073 13.5253C121.447 13.3582 121.884 13.2747 122.384 13.2747C122.883 13.2747 123.357 13.3846 123.806 13.6044C124.256 13.8242 124.655 14.1319 125.005 14.5275C125.354 14.9231 125.629 15.3978 125.828 15.9516C126.028 16.5055 126.128 17.1077 126.128 17.7582V26.4615H123.881V17.7582C123.881 17.1604 123.69 16.6593 123.307 16.2549C122.924 15.8505 122.45 15.6484 121.884 15.6484C121.502 15.6484 121.156 15.7187 120.848 15.8593C120.541 16 120.278 16.1495 120.062 16.3077C119.796 16.5011 119.571 16.7209 119.388 16.967V26.4615H117.142V15.9121H115.394V13.5385H119.388ZM130.122 21.978V15.9121H127.875V13.5385H130.122V9.31868H132.368V13.5385H134.865V15.9121H132.368V21.978C132.368 22.5758 132.56 23.0769 132.942 23.4813C133.325 23.8857 133.799 24.0879 134.365 24.0879H135.613V26.4615H134.365C133.733 26.4615 133.159 26.3516 132.643 26.1319C132.127 25.9121 131.682 25.6044 131.307 25.2088C130.933 24.8132 130.642 24.3429 130.434 23.7978C130.226 23.2527 130.122 22.6462 130.122 21.978ZM141.604 24.0879C142.037 24.0879 142.395 23.9385 142.678 23.6396C142.961 23.3407 143.102 22.9626 143.102 22.5055C143.102 22.1714 142.948 21.9077 142.64 21.7143C142.332 21.5209 141.945 21.3495 141.479 21.2C141.013 21.0505 140.514 20.8923 139.982 20.7253C139.449 20.5582 138.95 20.3385 138.484 20.0659C138.018 19.7934 137.631 19.4462 137.323 19.0242C137.015 18.6022 136.861 18.0484 136.861 17.3626C136.861 16.8 136.949 16.2857 137.124 15.8198C137.298 15.3538 137.548 14.9495 137.872 14.6066C138.197 14.2637 138.58 14 139.021 13.8154C139.462 13.6308 139.948 13.5385 140.481 13.5385H144.6V15.9121H140.481C140.098 15.9121 139.774 16.0527 139.507 16.3341C139.241 16.6154 139.108 16.9582 139.108 17.3626C139.108 17.6967 139.262 17.9604 139.57 18.1538C139.878 18.3473 140.265 18.5187 140.731 18.6681C141.197 18.8176 141.696 18.9758 142.228 19.1429C142.761 19.3099 143.26 19.5297 143.726 19.8022C144.192 20.0747 144.579 20.422 144.887 20.844C145.195 21.2659 145.349 21.8198 145.349 22.5055C145.349 23.7011 145.007 24.6593 144.325 25.3802C143.643 26.1011 142.736 26.4615 141.604 26.4615H137.111V24.0879H141.604ZM158.828 8V10.5055H148.094V8H158.828ZM150.466 18.1538V26.4615H148.094V15.6484H156.581V18.1538H150.466ZM163.571 8V10.6374H161.324V8H163.571ZM159.078 24.0879H161.324V15.9121H159.577V13.5385H163.571V24.0879H165.817V26.4615H159.078V24.0879ZM170.061 13.5385V14.8571C170.261 14.5582 170.51 14.2945 170.81 14.0659C171.059 13.8725 171.371 13.6923 171.746 13.5253C172.12 13.3582 172.557 13.2747 173.056 13.2747C173.556 13.2747 174.03 13.3846 174.479 13.6044C174.928 13.8242 175.328 14.1319 175.677 14.5275C176.027 14.9231 176.301 15.3978 176.501 15.9516C176.701 16.5055 176.801 17.1077 176.801 17.7582V26.4615H174.554V17.7582C174.554 17.1604 174.363 16.6593 173.98 16.2549C173.597 15.8505 173.123 15.6484 172.557 15.6484C172.174 15.6484 171.829 15.7187 171.521 15.8593C171.213 16 170.951 16.1495 170.735 16.3077C170.469 16.5011 170.244 16.7209 170.061 16.967V26.4615H167.814V15.9121H166.067V13.5385H170.061ZM184.04 13.5385H186.286V10.3736H184.539V8H188.533V26.4615H184.04C183.407 26.4615 182.833 26.3516 182.317 26.1319C181.801 25.9121 181.356 25.6044 180.982 25.2088C180.607 24.8132 180.316 24.3429 180.108 23.7978C179.9 23.2527 179.796 22.6462 179.796 21.978V18.022C179.796 17.3714 179.9 16.7692 180.108 16.2154C180.316 15.6615 180.607 15.1868 180.982 14.7912C181.356 14.3956 181.801 14.0879 182.317 13.8681C182.833 13.6484 183.407 13.5385 184.04 13.5385ZM182.043 18.022V21.978C182.043 22.5758 182.234 23.0769 182.617 23.4813C182.999 23.8857 183.474 24.0879 184.04 24.0879H186.286V15.9121H184.04C183.474 15.9121 182.999 16.1143 182.617 16.5187C182.234 16.9231 182.043 17.4242 182.043 18.022ZM191.528 21.978V18.022C191.528 17.3363 191.64 16.7033 191.865 16.1231C192.09 15.5429 192.402 15.0418 192.801 14.6198C193.201 14.1978 193.675 13.8681 194.224 13.6308C194.773 13.3934 195.372 13.2747 196.021 13.2747C196.67 13.2747 197.269 13.3934 197.819 13.6308C198.368 13.8681 198.842 14.1978 199.241 14.6198C199.641 15.0418 199.953 15.5429 200.177 16.1231C200.402 16.7033 200.514 17.3363 200.514 18.022V21.3187H193.775V21.978C193.775 22.5758 193.966 23.0769 194.349 23.4813C194.732 23.8857 195.206 24.0879 195.772 24.0879H199.766V26.4615H195.772C195.139 26.4615 194.565 26.3516 194.049 26.1319C193.533 25.9121 193.088 25.6044 192.714 25.2088C192.339 24.8132 192.048 24.3429 191.84 23.7978C191.632 23.2527 191.528 22.6462 191.528 21.978ZM196.021 15.6484C195.389 15.6484 194.856 15.8769 194.424 16.3341C193.991 16.7912 193.775 17.3538 193.775 18.022V19.0769H198.268V18.022C198.268 17.3538 198.052 16.7912 197.619 16.3341C197.186 15.8769 196.654 15.6484 196.021 15.6484ZM208.253 26.4615H201.513V24.0879H203.76V15.9121H202.012V13.5385H206.006V14.8571C206.206 14.5582 206.455 14.2945 206.755 14.0659C207.005 13.8725 207.317 13.6923 207.691 13.5253C208.065 13.3582 208.502 13.2747 209.002 13.2747H210V15.9121H208.502C208.12 15.9121 207.774 15.9824 207.466 16.1231C207.158 16.2637 206.896 16.4132 206.68 16.5714C206.414 16.7648 206.189 16.9846 206.006 17.2308V24.0879H208.253V26.4615Z" fill="#E9EAEA"/>
</svg>
